<svg width="9" height="11" viewBox="0 0 9 11" fill="none" xmlns="http://www.w3.org/2000/svg">
<path d="M4.41673 0L4.09298 0.0214893L3.77026 0.0707883L3.45064 0.149161L3.13826 0.255344L2.83209 0.389336L2.53523 0.549874L2.24664 0.735693L1.97253 0.946794L1.7098 1.18191L1.46156 1.43852L1.22986 1.71662L1.01575 2.01494L0.819216 2.33096L0.641306 2.66467L0.483048 3.01103L0.347546 3.37256L0.231698 3.74293L0.139639 4.12342L0.0703367 4.51276L0.022756 4.90588L0 5.30154V5.69972L0.022756 6.09412L0.0703367 6.48724L0.139639 6.87658L0.231698 7.2558L0.347546 7.62744L0.483048 7.98897L0.641306 8.33532L0.819216 8.66904L1.01575 8.98506L1.22986 9.28338L1.46156 9.56148L1.7098 9.81809L1.97253 10.0532L2.24664 10.2643L2.53523 10.4501L2.83209 10.6094L3.13826 10.7447L3.45064 10.8496L3.77026 10.9292L4.09298 10.9785L4.41673 11L4.74256 10.9937L5.06631 10.9583L5.38593 10.8926L5.70245 10.8003L6.01172 10.6815L6.31376 10.5336L6.60648 10.3604L6.88783 10.1619L7.1578 9.93817L7.41225 9.69168L7.65222 9.42496L7.87565 9.13549L8.08149 8.82832L8.2687 8.50471L8.43731 8.16468L8.58315 7.80947L8.70934 7.44289L8.81278 7.06746L8.8945 6.68191L8.95242 6.29258L8.98759 5.89692L9 5.5L8.98759 5.10308L8.95242 4.70742L8.8945 4.31809L8.81278 3.93254L8.70934 3.55711L8.58315 3.19053L8.43731 2.83533L8.2687 2.49529L8.08149 2.17168L7.87565 1.86325L7.65222 1.57504L7.41225 1.30706L7.1578 1.06182L6.88783 0.838083L6.60648 0.639623L6.31376 0.466444L6.01172 0.319812L5.70245 0.199724L5.38593 0.107447L5.06631 0.0429786L4.74256 0.00632039L4.41673 0ZM4.57499 0.647208L4.8822 0.668697L5.18734 0.720524L5.48833 0.798897L5.78416 0.907607L6.07068 1.04286L6.34996 1.20467L6.61579 1.39301L6.87024 1.60664L7.11022 1.84302L7.33364 2.1009L7.54051 2.38026L7.72877 2.67732L7.8984 2.99081L8.04735 3.32073L8.17458 3.6633L8.28008 4.0185L8.36387 4.38129L8.42283 4.7504L8.45799 5.12457L8.47041 5.5L8.45799 5.87543L8.42283 6.2496L8.36387 6.61871L8.28008 6.9815L8.17458 7.33544L8.04735 7.67801L7.8984 8.00793L7.72877 8.32268L7.54051 8.62101L7.33364 8.8991L7.11022 9.15698L6.87024 9.39336L6.61579 9.60699L6.34996 9.79533L6.07068 9.95714L5.78416 10.0924L5.48833 10.2011L5.18734 10.2807L4.8822 10.3313L4.57499 10.3528L4.26779 10.3465L3.96058 10.3085L3.65751 10.2428L3.35961 10.1493L3.06792 10.0279L2.78451 9.87876L2.51247 9.70432L2.25181 9.50207L2.0046 9.27833L1.7729 9.03057L1.55672 8.76132L1.35915 8.47311L1.18021 8.1672L1.02092 7.84486L0.882312 7.50862L0.766464 7.15973L0.672337 6.80074L0.600965 6.43415L0.553385 6.06251L0.529594 5.68835V5.31165L0.553385 4.93622L0.600965 4.56458L0.672337 4.19926L0.766464 3.84027L0.882312 3.49138L1.02092 3.15514L1.18021 2.8328L1.35915 2.52563L1.55672 2.23868L1.7729 1.96943L2.0046 1.72167L2.25181 1.49667L2.51247 1.29568L2.78451 1.12124L3.06792 0.972075L3.35961 0.850724L3.65751 0.755918L3.96058 0.69145L4.26779 0.653528L4.57499 0.647208ZM4.49845 2.58757C3.18226 2.58757 2.11527 3.89151 2.11527 5.5C2.11527 7.10849 3.18226 8.41243 4.49845 8.41243C5.03403 8.41114 5.55363 8.18935 5.97345 7.78292L5.64659 7.27856C5.3195 7.59385 4.91504 7.76529 4.49845 7.76523C3.47474 7.76523 2.64487 6.75105 2.64487 5.5C2.64487 4.24895 3.47474 3.23477 4.49845 3.23477C4.91493 3.23572 5.31902 3.40804 5.64556 3.72397L5.97552 3.21455C5.55487 2.80849 5.03449 2.5876 4.49845 2.58757Z" fill="white"/>
</svg>
