<svg width="29" height="29" viewBox="0 0 29 29" fill="none" xmlns="http://www.w3.org/2000/svg">
<path d="M14.25 25.6771V11.2194C14.25 10.8166 14.3281 10.4178 14.4797 10.0458C14.6314 9.67375 14.8536 9.3358 15.1338 9.05129C15.414 8.76677 15.7465 8.54127 16.1124 8.38769C16.4783 8.23411 16.8704 8.15546 17.2662 8.15626C18.7447 8.15626 19.6709 8.60334 20.3062 9.43709" stroke="white" stroke-width="1.25" stroke-linecap="round" stroke-linejoin="round"/>
<path d="M11.6969 14.0713H17.7235" stroke="white" stroke-width="1.25" stroke-linecap="round" stroke-linejoin="round"/>
<path d="M4.44128 3.32324C4.12634 3.32324 3.82429 3.45055 3.60159 3.67715C3.3789 3.90376 3.25378 4.21111 3.25378 4.53158V24.4691C3.25378 24.7895 3.3789 25.0969 3.60159 25.3235C3.82429 25.5501 4.12634 25.6774 4.44128 25.6774H24.0588C24.3737 25.6774 24.6758 25.5501 24.8985 25.3235C25.1212 25.0969 25.2463 24.7895 25.2463 24.4691V4.53158C25.2463 4.21111 25.1212 3.90376 24.8985 3.67715C24.6758 3.45055 24.3737 3.32324 24.0588 3.32324H4.44128Z" stroke="white" stroke-width="1.25" stroke-linecap="round" stroke-linejoin="round"/>
</svg>
