<svg width="15" height="15" viewBox="0 0 15 15" fill="none" xmlns="http://www.w3.org/2000/svg">
<path d="M7.5 0.598633C3.63403 0.598633 0.5 3.73266 0.5 7.59863C0.5 11.4646 3.63403 14.5986 7.5 14.5986C11.366 14.5986 14.5 11.4646 14.5 7.59863C14.5 3.73266 11.366 0.598633 7.5 0.598633ZM6.58541 2.00191L6.62391 1.95707C6.72147 1.84441 6.83194 1.71688 6.84856 1.4977C6.863 1.31548 6.79869 1.18685 6.72912 1.08273C6.98222 1.05298 7.23903 1.03613 7.5 1.03613C7.82047 1.03613 8.13503 1.0602 8.44325 1.1046C8.50056 1.17613 8.57581 1.25073 8.69788 1.30082C8.82738 1.3566 8.98028 1.40079 9.17278 1.35529C9.22966 1.34173 9.27384 1.31766 9.31191 1.29141C9.44709 1.33013 9.58075 1.37213 9.71244 1.41916C9.75859 1.55238 9.84719 1.7112 10.0633 1.73854C10.1849 1.75582 10.2867 1.73679 10.3757 1.69851C12.2296 2.60391 13.5917 4.35698 13.961 6.45282C13.9251 6.52851 13.9199 6.60288 13.9188 6.64991C13.9183 6.66304 13.9194 6.67638 13.9205 6.67988C13.9127 6.69213 13.9026 6.69848 13.8538 6.72188C13.798 6.74879 13.7219 6.78554 13.6517 6.85948C13.5718 6.94195 13.5351 7.02354 13.5056 7.08916C13.4826 7.14035 13.4695 7.16813 13.4456 7.19198C13.4303 7.20685 13.4006 7.21582 13.3537 7.22938C13.2623 7.25563 13.1243 7.29523 13.0315 7.44551C12.9434 7.58748 12.9508 7.71873 12.9561 7.81454C12.9567 7.82548 12.9576 7.83663 12.958 7.84801C12.9412 7.85632 12.9206 7.86485 12.8992 7.87185C12.9119 7.80273 12.9136 7.70713 12.8517 7.60891C12.7682 7.48138 12.6577 7.46213 12.5995 7.46213C12.4884 7.46213 12.4046 7.52601 12.3508 7.57829C12.3519 7.47241 12.3495 7.37485 12.3322 7.30179C12.316 7.22829 12.3263 7.18738 12.3608 7.06882L12.3729 7.02726C12.3884 6.97082 12.4192 6.93057 12.4617 6.87457C12.5201 6.79801 12.5927 6.70285 12.6273 6.55585C12.666 6.39573 12.6546 6.2776 12.6435 6.1632C12.6393 6.12273 12.6352 6.08007 12.6332 6.03085L12.629 5.91513C12.6247 5.77907 12.6212 5.6616 12.5877 5.4901L12.5726 5.41376C12.5389 5.2416 12.5096 5.09307 12.3867 4.9056C12.2814 4.74832 12.1983 4.63785 12.0139 4.53985C11.9704 4.51601 11.9251 4.49676 11.8789 4.48232C11.8043 4.45738 11.7361 4.44885 11.67 4.44032L11.6018 4.43113C11.4852 4.41407 11.3802 4.43441 11.303 4.45016C11.2404 4.46285 11.2006 4.47313 11.1693 4.45585C11.138 4.43879 11.1232 4.42085 11.0844 4.37185C11.0639 4.34582 11.0422 4.31848 11.0136 4.28676C10.9847 4.2557 10.965 4.22682 10.946 4.19948C10.9083 4.14588 10.8618 4.07895 10.7797 4.01266C10.6922 3.94157 10.6255 3.8917 10.4999 3.84773C10.2766 3.77379 10.0712 3.82891 9.894 3.8917C9.74875 3.94201 9.66016 4.01507 9.58162 4.07938C9.54728 4.10782 9.51097 4.13801 9.47575 4.16163C9.44119 4.18176 9.41012 4.19576 9.38081 4.20976C9.31169 4.24191 9.23316 4.27866 9.14631 4.35588C9.08594 4.40882 8.88097 4.54248 8.8335 4.55451C8.81228 4.55363 8.79128 4.5451 8.753 4.5287C8.70356 4.50726 8.63619 4.4786 8.55831 4.47226L8.51084 4.46941C8.49619 4.46941 8.48109 4.47029 8.46994 4.47138C8.37062 4.47882 8.30084 4.5112 8.24944 4.5346C8.22931 4.54379 8.20875 4.55429 8.18294 4.56063C8.10725 4.57945 8.02194 4.57813 7.93619 4.57354C7.79903 4.56654 7.6645 4.57048 7.54112 4.60548C7.43984 4.63413 7.36656 4.68357 7.31319 4.71988C7.25566 4.75882 7.24187 4.7656 7.22 4.76582C7.19791 4.76582 7.18216 4.75663 7.12112 4.70851C7.06075 4.66082 6.97784 4.59541 6.85556 4.56151C6.76741 4.53788 6.70462 4.53023 6.63812 4.52213L6.57753 4.5147C6.46269 4.49807 6.38066 4.49129 6.28769 4.48363C6.24459 4.48013 6.19909 4.47663 6.14594 4.47138L6.08425 4.47029L6.07419 4.47423C6.06697 4.47466 6.05844 4.4751 6.04903 4.47554L6.04663 4.47401C5.97663 4.42523 5.90422 4.37513 5.79791 4.32351C5.71959 4.28501 5.65594 4.2557 5.58594 4.23054C5.58287 4.15245 5.57413 4.04832 5.55072 3.97832C5.54569 3.96235 5.54044 3.94835 5.53366 3.93085C5.53606 3.92079 5.54044 3.90395 5.54897 3.87835C5.57741 3.7961 5.62159 3.73441 5.64084 3.7097C5.65266 3.7016 5.66359 3.6946 5.67409 3.6876C5.715 3.66135 5.76553 3.62854 5.81759 3.5721C5.9635 3.41766 6.02978 3.2687 6.04641 3.05651C6.05953 2.86707 5.95387 2.73976 5.88387 2.65532C5.86375 2.63148 5.83269 2.59407 5.82831 2.58926C5.83772 2.55229 5.85412 2.53632 5.94556 2.47573C5.99544 2.4427 6.0475 2.40748 6.09716 2.36395C6.15359 2.31516 6.20784 2.28432 6.27041 2.24866C6.36841 2.19288 6.47931 2.12966 6.58541 2.00191ZM1.46381 10.1766C1.21488 9.59451 1.04819 8.96888 0.977094 8.31482C1.03069 8.21419 1.09566 8.11663 1.18403 8.00901C1.24725 7.93354 1.31441 7.88782 1.39184 7.8351C1.48613 7.77079 1.59309 7.69773 1.69438 7.57107C1.816 7.42298 1.85581 7.26504 1.88797 7.13795C1.92253 7.00166 1.94222 6.93385 2.01441 6.88376C2.11503 6.81507 2.19466 6.80763 2.33903 6.79407C2.39087 6.78948 2.44578 6.78401 2.50637 6.77548L2.58687 6.76366C2.87081 6.72188 3.05216 6.70307 3.28819 6.76957C3.44831 6.81441 3.54697 6.88923 3.67188 6.98373C3.75412 7.04607 3.84731 7.11651 3.96631 7.18454C4.05862 7.23726 4.13672 7.29545 4.21219 7.35166C4.38084 7.47701 4.55519 7.60651 4.84503 7.64895C5.01128 7.67191 5.15128 7.62051 5.25737 7.58048C5.31053 7.56013 5.36084 7.5411 5.39213 7.5411C5.39934 7.5411 5.40853 7.54176 5.42341 7.54985C5.56669 7.62948 5.59862 7.69554 5.60453 7.74082C5.57391 7.74935 5.5295 7.75701 5.49691 7.76291C5.34313 7.78982 5.057 7.83991 5.02397 8.13457C5.00734 8.27676 5.05613 8.36579 5.10053 8.41523C5.21516 8.54451 5.42887 8.53073 5.66972 8.47648C5.77341 8.45307 5.88081 8.42857 5.96678 8.42857C6.00594 8.42857 6.02912 8.43382 6.03962 8.43754C6.10306 8.46051 6.17153 8.47735 6.23825 8.4931C6.26756 8.49988 6.30672 8.50907 6.34041 8.51826C6.31569 8.52285 6.29031 8.52745 6.26887 8.53116C6.16803 8.54845 6.05406 8.56813 5.94972 8.61779C5.86747 8.65607 5.79725 8.69238 5.73141 8.72673C5.59709 8.79629 5.49078 8.85141 5.32891 8.89538C5.27947 8.90851 5.20444 8.89735 5.12547 8.88401C5.06291 8.87329 4.99838 8.86235 4.93013 8.86235C4.76869 8.86235 4.64159 8.92644 4.55322 9.05157C4.35109 9.33419 4.47097 9.62973 4.52872 9.77213C4.60725 9.96529 4.79231 10.1956 5.22588 10.1956C5.42997 10.1956 5.666 10.146 5.96853 10.0397C6.17722 9.96573 6.2995 9.83207 6.3975 9.72444C6.47669 9.63738 6.53925 9.5687 6.64031 9.52363L6.75166 9.47288C6.98091 9.36723 7.14869 9.29198 7.32894 9.37685C7.37728 9.3996 7.39828 9.44291 7.44225 9.55141C7.49322 9.67785 7.56322 9.8511 7.75813 9.95479C7.93553 10.0489 8.15712 10.0147 8.319 9.96835C8.41612 9.94057 8.494 9.91673 8.55044 9.94976C8.60972 9.98498 8.63422 10.0327 8.67928 10.1285C8.71953 10.214 8.76941 10.3203 8.86587 10.4214C8.89475 10.4518 8.92187 10.4813 8.94791 10.5098C9.10781 10.685 9.25919 10.8504 9.55866 10.9212C9.60175 10.9313 9.64572 10.9363 9.68947 10.9363C9.84259 10.9363 9.96575 10.8753 10.0646 10.8261C10.1495 10.7841 10.2149 10.7526 10.2683 10.7692C10.4916 10.8423 10.538 10.8924 10.559 10.9816C10.5774 11.0531 10.5017 11.1133 10.2212 11.2487C10.1766 11.2704 10.1322 11.2918 10.09 11.3137C9.93928 11.3913 9.82641 11.4009 9.65556 11.4156C9.58731 11.4213 9.51447 11.4276 9.43594 11.4384C9.27734 11.4583 9.13406 11.4926 8.99537 11.5259C8.83547 11.5644 8.68431 11.6004 8.55284 11.6004C8.42137 11.6004 8.31638 11.5644 8.21488 11.4847C8.13175 11.4182 8.09325 11.3476 8.03987 11.25C8.00116 11.1791 7.95741 11.0989 7.88828 11.0074C7.82725 10.9304 7.77475 10.8197 7.724 10.7123C7.612 10.4754 7.47266 10.1805 7.15569 10.1805C7.10166 10.1805 7.04544 10.1902 6.98856 10.2094C6.74225 10.2923 6.66022 10.4896 6.60028 10.6336C6.57447 10.6955 6.55019 10.7539 6.51737 10.802C6.43534 10.919 6.394 11.0433 6.35725 11.1529C6.29578 11.3369 6.27653 11.3585 6.22753 11.3657C6.14856 11.3771 6.09891 11.3436 5.98144 11.2588C5.94644 11.2334 5.91012 11.2069 5.87162 11.1815C5.79594 11.1312 5.75131 11.0754 5.69466 11.0046C5.63144 10.9256 5.55969 10.8359 5.44222 10.7515C5.31163 10.6552 5.19372 10.6091 5.08981 10.5682C5.00581 10.5354 4.93319 10.5069 4.85312 10.4538C4.82272 10.4334 4.79581 10.3993 4.76453 10.3595C4.69344 10.2694 4.58603 10.1331 4.37384 10.1254L4.35175 10.125C4.19184 10.125 3.9685 10.1819 3.81231 10.4524C3.75566 10.5504 3.71606 10.6828 3.67363 10.8228C3.60494 11.0514 3.51066 11.364 3.363 11.364H3.36278C3.21009 11.3537 2.76056 10.9602 2.54444 10.7709C2.38956 10.6353 2.25569 10.5183 2.15922 10.4544L2.08659 10.4043C1.92144 10.2895 1.75125 10.1711 1.52637 10.1711C1.50581 10.1711 1.48481 10.1744 1.46381 10.1766ZM7.5 14.1611C4.98787 14.1611 2.80606 12.7489 1.70334 10.6751C1.74534 10.7007 1.78931 10.7303 1.83634 10.7629L1.91553 10.8173C1.98903 10.8661 2.11853 10.9792 2.25569 11.0993C2.71069 11.4974 3.05412 11.7807 3.33391 11.7997C3.82828 11.8323 3.98709 11.2964 4.09209 10.9481C4.12512 10.8381 4.15969 10.7244 4.19075 10.6701C4.24872 10.5699 4.30406 10.5616 4.35962 10.5614C4.37187 10.5679 4.40097 10.6051 4.42022 10.6296C4.46528 10.6869 4.52172 10.7583 4.60988 10.8171C4.72953 10.8965 4.83562 10.9381 4.92969 10.9748C5.01981 11.01 5.09769 11.0407 5.18388 11.1045C5.25497 11.1553 5.30003 11.2119 5.35253 11.2774C5.42013 11.3616 5.49625 11.4567 5.62925 11.5455C5.66294 11.5679 5.694 11.5904 5.72419 11.612C5.86594 11.7153 6.02934 11.8345 6.28856 11.7984C6.61778 11.7512 6.71031 11.4744 6.77156 11.2914C6.80153 11.2021 6.82975 11.1179 6.87678 11.0503C6.93628 10.9632 6.97216 10.8773 7.00344 10.8016C7.05966 10.6668 7.07825 10.6404 7.12769 10.6237C7.143 10.6185 7.15131 10.6169 7.157 10.6178C7.20141 10.6318 7.28366 10.8057 7.32784 10.8991C7.38625 11.0227 7.45253 11.1627 7.54178 11.2752C7.58838 11.3366 7.62075 11.3964 7.65553 11.4594C7.71809 11.5742 7.78919 11.7046 7.94253 11.8275C8.12344 11.969 8.32272 12.0379 8.55241 12.0379C8.73572 12.0379 8.91137 11.9959 9.09687 11.9513C9.22397 11.9207 9.35566 11.8892 9.49238 11.8721C9.565 11.8623 9.63062 11.8568 9.69209 11.8514C9.88241 11.8354 10.062 11.8199 10.2904 11.7022C10.3293 11.682 10.37 11.6624 10.4111 11.6427C10.6835 11.511 11.0952 11.3121 10.9834 10.8773C10.8985 10.5154 10.5767 10.41 10.4022 10.3531C10.347 10.3356 10.2904 10.3267 10.2337 10.3267C10.0865 10.3267 9.96619 10.3864 9.8695 10.4345C9.7855 10.4763 9.71528 10.5084 9.65819 10.4955C9.49063 10.4557 9.40772 10.3649 9.27056 10.2149C9.24278 10.1843 9.21369 10.153 9.18263 10.1199C9.13494 10.0699 9.10716 10.0108 9.075 9.94232C9.01988 9.82507 8.95141 9.67916 8.77378 9.57351C8.59528 9.46741 8.36472 9.49979 8.19737 9.54813C8.10091 9.57591 8.02303 9.60041 7.96353 9.56848C7.91366 9.54223 7.89113 9.49585 7.84781 9.38801C7.79531 9.25785 7.72356 9.07957 7.51531 8.98135C7.39981 8.9271 7.28497 8.90063 7.16466 8.90063C6.94809 8.90063 6.76347 8.98595 6.56791 9.07629L6.46225 9.12463C6.27741 9.20688 6.16475 9.3307 6.07397 9.43023C5.98909 9.52341 5.92784 9.59057 5.82306 9.62754C5.57237 9.7157 5.37703 9.75879 5.22609 9.75879C5.02309 9.75879 4.96469 9.68223 4.93428 9.60807C4.86034 9.42585 4.86734 9.36569 4.93034 9.30073C4.96863 9.30073 5.00953 9.30882 5.05219 9.31604C5.16637 9.33529 5.31469 9.35191 5.442 9.31888C5.65069 9.26244 5.78784 9.19113 5.93309 9.11566C5.99391 9.08395 6.05844 9.05048 6.13587 9.01438C6.18728 8.9901 6.26669 8.97632 6.34303 8.9632C6.513 8.93388 6.86716 8.87329 6.84134 8.50732C6.81488 8.18007 6.51672 8.11007 6.33844 8.06807C6.28834 8.05626 6.23694 8.04488 6.18772 8.02695C6.12559 8.00485 6.05778 7.99348 5.98122 7.99216C6.01316 7.94491 6.03525 7.88629 6.04138 7.81279C6.05997 7.54504 5.92369 7.32826 5.63559 7.16835C5.55903 7.12613 5.47722 7.1047 5.39256 7.1047C5.28056 7.1047 5.18584 7.14079 5.10228 7.17273C5.02703 7.20116 4.96141 7.22479 4.90781 7.21713C4.72844 7.19088 4.62147 7.11148 4.47381 7.00166C4.392 6.94085 4.29903 6.87173 4.18397 6.80566C4.08925 6.75185 4.01531 6.69563 3.93678 6.63635C3.79438 6.52851 3.64716 6.41673 3.40741 6.34935C3.10225 6.2636 2.84237 6.2846 2.52344 6.33185L2.44491 6.34345C2.39284 6.35088 2.34472 6.35526 2.29922 6.35941C2.13363 6.37495 1.96256 6.39091 1.767 6.52435C1.55547 6.67135 1.50516 6.87107 1.46447 7.03163C1.43866 7.13379 1.41612 7.22195 1.35487 7.29698C1.29297 7.37441 1.228 7.4186 1.14597 7.4746C1.08144 7.51857 1.011 7.56757 0.938813 7.63516C0.938375 7.62226 0.9375 7.61066 0.9375 7.59863C0.9375 4.40226 3.22344 1.74073 6.24941 1.15666C6.27369 1.19429 6.29863 1.23082 6.32247 1.26385C6.39859 1.36885 6.41741 1.40232 6.41237 1.46401C6.40691 1.53641 6.37934 1.5712 6.29316 1.67051L6.25028 1.72082C6.19341 1.78907 6.135 1.82254 6.05384 1.8687C5.98209 1.90982 5.9005 1.9562 5.81081 2.03363C5.77516 2.0647 5.73863 2.08832 5.70406 2.11107C5.59972 2.1802 5.45666 2.27513 5.40416 2.48316C5.35078 2.6982 5.47394 2.84673 5.54766 2.93554C5.57128 2.96441 5.61131 3.01254 5.61044 3.02545C5.60169 3.13701 5.57828 3.19016 5.498 3.27482C5.48247 3.29188 5.46891 3.30085 5.43763 3.3212C5.41291 3.33695 5.38688 3.35401 5.358 3.3761L5.33153 3.40016C5.31841 3.41395 5.20334 3.54082 5.13509 3.73945C5.08325 3.89585 5.08106 3.97745 5.12547 4.08901L5.13509 4.11482C5.14297 4.14129 5.15041 4.23448 5.15084 4.29463L5.13247 4.56107L5.31053 4.60548C5.42756 4.63457 5.48684 4.65885 5.6065 4.71791C5.68328 4.75488 5.73381 4.7901 5.79769 4.83451L5.862 4.87804C5.94775 4.92923 6.03481 4.92026 6.12734 4.90998C6.1735 4.91457 6.21419 4.91763 6.25291 4.92091C6.33712 4.92748 6.4115 4.9336 6.51737 4.94891L6.58606 4.95745C6.63944 4.96401 6.68188 4.9686 6.74094 4.98435C6.77463 4.99376 6.80328 5.01563 6.85075 5.05282C6.93169 5.1167 7.04259 5.20398 7.22372 5.20398C7.38209 5.20288 7.48447 5.13332 7.55928 5.08235C7.60259 5.05304 7.62863 5.03598 7.661 5.02701C7.73713 5.00535 7.82419 5.00623 7.91278 5.01082C8.04053 5.01804 8.16981 5.01541 8.28969 4.98566C8.34547 4.97166 8.38988 4.95241 8.43231 4.93273C8.4695 4.91566 8.48328 4.90976 8.48787 4.90888L8.50363 4.90932L8.515 4.90801C8.52944 4.9091 8.55197 4.91873 8.58041 4.93076C8.63662 4.95482 8.71341 4.98807 8.82934 4.99201C9.06537 4.99201 9.43112 4.68795 9.4355 4.68423C9.47619 4.64835 9.51009 4.6326 9.56653 4.60613C9.60634 4.58754 9.64813 4.56763 9.70566 4.53416C9.76603 4.49413 9.81416 4.4552 9.85966 4.41779C9.92397 4.36507 9.96619 4.33007 10.039 4.3047C10.1915 4.25045 10.2641 4.23032 10.3586 4.26226C10.4127 4.28107 10.4345 4.29616 10.5043 4.35282C10.5384 4.38038 10.5566 4.40663 10.5872 4.45016C10.617 4.49282 10.6485 4.53701 10.6911 4.58251C10.7102 4.60373 10.7259 4.62363 10.7408 4.64266C10.7885 4.70282 10.8478 4.77807 10.9589 4.83932C11.0973 4.91457 11.2669 4.90363 11.3916 4.87848C11.4476 4.8671 11.4911 4.8566 11.5377 4.86382L11.6151 4.87432C11.6685 4.8811 11.707 4.88613 11.7444 4.89838C11.7632 4.90407 11.7829 4.91195 11.8065 4.92463C11.9023 4.9756 11.9382 5.0211 12.0224 5.1471C12.0972 5.26129 12.1137 5.34529 12.1436 5.49798L12.1592 5.57607C12.1856 5.7106 12.1885 5.80204 12.1922 5.92848L12.1966 6.04901C12.199 6.10698 12.2036 6.15773 12.2084 6.20563C12.2178 6.30145 12.2239 6.36488 12.2022 6.45457C12.1893 6.50926 12.1633 6.54535 12.1143 6.60966C12.0588 6.68251 11.9896 6.77329 11.9524 6.90913L11.9415 6.94632C11.9019 7.08195 11.8643 7.21013 11.9065 7.39979C11.9163 7.44201 11.9144 7.56604 11.9128 7.6566C11.9087 7.90423 11.9063 8.06785 12.01 8.17329C12.0574 8.22163 12.1204 8.2481 12.1874 8.2481L12.2552 8.24351L12.2998 8.22207C12.3622 8.19232 12.4162 8.14966 12.4647 8.10241C12.4665 8.10635 12.468 8.11007 12.4696 8.11401C12.5297 8.24832 12.6583 8.32554 12.8228 8.32554C13.0031 8.32554 13.368 8.19779 13.3929 7.96132C13.3988 7.89898 13.3964 7.84254 13.3933 7.78938C13.3888 7.7126 13.3903 7.69773 13.4049 7.67432C13.4135 7.66776 13.4502 7.65704 13.4745 7.65026C13.5511 7.62816 13.6554 7.59841 13.7521 7.50501C13.8368 7.42101 13.8746 7.33657 13.905 7.26898C13.9277 7.21823 13.9409 7.19045 13.9676 7.16288C13.9833 7.14626 14.0048 7.13532 14.0437 7.11673C14.0546 7.27598 14.0625 7.43632 14.0625 7.59863C14.0625 11.2229 11.1243 14.1611 7.5 14.1611Z" fill="white"/>
<path d="M10.2626 6.75938C10.0219 6.82873 9.93532 7.01248 9.87188 7.14679C9.83797 7.21898 9.80844 7.2811 9.75988 7.32594C9.67413 7.40601 9.59122 7.45019 9.49497 7.50138C9.38822 7.55826 9.26725 7.62257 9.14213 7.73938C9.0975 7.78072 9.04632 7.81638 8.99754 7.85116C8.83632 7.96557 8.59241 8.1386 8.66394 8.46454C8.71075 8.66907 8.86804 8.79113 9.08438 8.79113C9.22766 8.79113 9.38319 8.74104 9.53391 8.69248C9.60829 8.66863 9.68201 8.64435 9.74916 8.62947C10.1324 8.54569 10.3947 8.44529 10.6817 8.15697C10.7132 8.12569 10.746 8.09441 10.7793 8.06248C11.0273 7.82622 11.4018 7.46901 11.1233 7.05557C10.9361 6.77448 10.6043 6.66116 10.2626 6.75938ZM10.4772 7.74573C10.4417 7.77963 10.4065 7.81332 10.3722 7.84744C10.1571 8.06357 9.9771 8.1316 9.65532 8.20204C9.57547 8.21954 9.48754 8.24754 9.39938 8.27598C9.28957 8.31119 9.16554 8.35144 9.09007 8.35341C9.09466 8.32673 9.12944 8.29413 9.25085 8.20794C9.31013 8.16573 9.37772 8.11782 9.44007 8.05963C9.52363 7.98197 9.60544 7.93823 9.70038 7.88769C9.80822 7.83016 9.93072 7.76519 10.0574 7.64663C10.1676 7.54513 10.223 7.42788 10.2674 7.3336C10.3234 7.21526 10.3407 7.19229 10.3838 7.17982C10.426 7.16757 10.4671 7.16144 10.506 7.16144C10.6134 7.16144 10.6988 7.20738 10.7598 7.29904C10.8162 7.38282 10.7528 7.48301 10.4772 7.74573Z" fill="white"/>
<path d="M7.5923 12.21C7.54177 12.21 7.49058 12.2178 7.43765 12.234C7.11871 12.3368 7.1338 12.6571 7.14168 12.8292C7.14474 12.8925 7.14736 12.9522 7.14146 13.0042C7.13643 13.0517 7.1233 13.0972 7.11171 13.141C7.07277 13.288 7.01415 13.5098 7.2073 13.7001C7.2983 13.7876 7.41315 13.834 7.5398 13.834C7.72771 13.834 7.93924 13.7252 8.10702 13.5421C8.36383 13.2562 8.3669 12.8384 8.11643 12.5287C7.99961 12.3801 7.8349 12.21 7.5923 12.21ZM7.78261 13.2481C7.6938 13.3455 7.59318 13.3965 7.5398 13.3965C7.52668 13.3965 7.52011 13.3938 7.50961 13.3849C7.50502 13.3647 7.52318 13.2976 7.53477 13.253C7.5503 13.1937 7.56824 13.1263 7.57611 13.053C7.58618 12.9675 7.58202 12.8833 7.57874 12.8087C7.57633 12.7577 7.57305 12.6838 7.5794 12.6488C7.61615 12.6422 7.65924 12.6551 7.77408 12.8012C7.89199 12.9471 7.89505 13.1232 7.78261 13.2481Z" fill="white"/>
</svg>
