<svg width="29" height="29" viewBox="0 0 29 29" fill="none" xmlns="http://www.w3.org/2000/svg">
<path d="M21.5068 6.60168C21.2497 6.59824 20.9973 6.66979 20.7815 6.80729C20.5658 6.94478 20.3964 7.14204 20.2947 7.37412C20.1931 7.6062 20.1638 7.86268 20.2105 8.11113C20.2572 8.35959 20.3779 8.58885 20.5572 8.76993C20.7365 8.95102 20.9665 9.07579 21.218 9.12848C21.4695 9.18116 21.7313 9.1594 21.9702 9.06593C22.2091 8.97246 22.4145 8.81148 22.5603 8.60336C22.7061 8.39524 22.7858 8.14931 22.7893 7.89668V7.86168C22.7862 7.52845 22.6501 7.20973 22.4103 6.97409C22.1704 6.73845 21.846 6.60472 21.5068 6.60168Z" stroke="white" stroke-width="1.25" stroke-linecap="round" stroke-linejoin="round"/>
<path d="M24.5766 3.70838H4.92344C4.61367 3.71599 4.31919 3.84226 4.10287 4.06023C3.88656 4.27821 3.76553 4.57062 3.76563 4.87505V24.1834C3.76563 24.4928 3.89074 24.7895 4.11344 25.0083C4.33614 25.2271 4.63818 25.35 4.95312 25.35H24.6062C24.9212 25.35 25.2232 25.2271 25.4459 25.0083C25.6686 24.7895 25.7937 24.4928 25.7937 24.1834V4.84588C25.7899 4.69266 25.7554 4.54168 25.6921 4.40158C25.6288 4.26148 25.5381 4.13499 25.4251 4.02936C25.312 3.92372 25.1789 3.841 25.0333 3.78593C24.8877 3.73085 24.7325 3.7045 24.5766 3.70838Z" stroke="white" stroke-width="1.25" stroke-linecap="round" stroke-linejoin="round"/>
<path d="M14.75 9.66992C13.7776 9.66992 12.8271 9.9532 12.0187 10.4839C11.2102 11.0147 10.5801 11.769 10.208 12.6516C9.83587 13.5341 9.73851 14.5053 9.92821 15.4422C10.1179 16.3791 10.5861 17.2398 11.2737 17.9152C11.9612 18.5907 12.8372 19.0507 13.7909 19.2371C14.7445 19.4235 15.733 19.3278 16.6314 18.9623C17.5297 18.5967 18.2975 17.9776 18.8377 17.1833C19.3779 16.389 19.6662 15.4552 19.6662 14.4999C19.6662 13.2189 19.1483 11.9904 18.2263 11.0846C17.3043 10.1788 16.0539 9.66992 14.75 9.66992Z" stroke="white" stroke-width="1.25" stroke-linecap="round" stroke-linejoin="round"/>
</svg>
