<svg width="29" height="29" viewBox="0 0 29 29" fill="none" xmlns="http://www.w3.org/2000/svg">
<path d="M9.44922 8.58496C9.69947 8.58496 9.90234 8.38209 9.90234 8.13184C9.90234 7.88158 9.69947 7.67871 9.44922 7.67871C9.19896 7.67871 8.99609 7.88158 8.99609 8.13184C8.99609 8.38209 9.19896 8.58496 9.44922 8.58496Z" fill="white"/>
<path d="M9.44922 10.2285V19.2789" stroke="white" stroke-width="1.25" stroke-linecap="round" stroke-linejoin="round"/>
<path d="M20.004 19.2793V13.4733C20.0024 12.5412 19.6314 11.6478 18.9723 10.9887C18.3133 10.3296 17.4198 9.95863 16.4877 9.95703C15.5546 9.95703 14.6596 10.3273 13.9992 10.9866C13.3389 11.6458 12.9671 12.5402 12.9655 13.4733V19.2793" stroke="white" stroke-width="1.25" stroke-linecap="round" stroke-linejoin="round"/>
<path d="M12.9655 13.4729V10.2285" stroke="white" stroke-width="1.25" stroke-linecap="round" stroke-linejoin="round"/>
<path d="M24.4687 3.32324H4.53121C4.21074 3.32324 3.90339 3.45055 3.67679 3.67715C3.45018 3.90376 3.32288 4.21111 3.32288 4.53158V24.4691C3.32288 24.7895 3.45018 25.0969 3.67679 25.3235C3.90339 25.5501 4.21074 25.6774 4.53121 25.6774H24.4687C24.7892 25.6774 25.0965 25.5501 25.3231 25.3235C25.5497 25.0969 25.677 24.7895 25.677 24.4691V4.53158C25.677 4.21111 25.5497 3.90376 25.3231 3.67715C25.0965 3.45055 24.7892 3.32324 24.4687 3.32324Z" stroke="white" stroke-width="1.25" stroke-linecap="round" stroke-linejoin="round"/>
</svg>
