<svg width="13" height="17" viewBox="0 0 13 17" fill="none" xmlns="http://www.w3.org/2000/svg">
<path fill-rule="evenodd" clip-rule="evenodd" d="M6.72784 14.8151C6.62536 14.8986 6.52984 14.9745 6.44256 15.0425C6.34944 14.9738 6.24616 14.8949 6.13416 14.8059C5.60608 14.3861 4.9212 13.7698 4.2467 13.0012C2.86322 11.4246 1.7 9.41206 1.7 7.2653C1.7 4.31978 3.84903 1.93197 6.5 1.93197C9.15096 1.93197 11.3 4.31978 11.3 7.2653C11.3 9.38903 10.0855 11.3958 8.65144 12.9891C7.95568 13.7623 7.25552 14.3852 6.72784 14.8151ZM12.5 7.2653C12.5 12.5986 6.5 16.5986 6.5 16.5986C6.2 16.5986 0.5 12.5986 0.5 7.2653C0.5 3.5834 3.18629 0.598633 6.5 0.598633C9.81368 0.598633 12.5 3.5834 12.5 7.2653ZM7.7 7.2653C7.7 8.00166 7.16272 8.59863 6.5 8.59863C5.83728 8.59863 5.3 8.00166 5.3 7.2653C5.3 6.52892 5.83728 5.93197 6.5 5.93197C7.16272 5.93197 7.7 6.52892 7.7 7.2653ZM8.9 7.2653C8.9 8.7381 7.82552 9.93197 6.5 9.93197C5.17448 9.93197 4.1 8.7381 4.1 7.2653C4.1 5.79254 5.17448 4.59863 6.5 4.59863C7.82552 4.59863 8.9 5.79254 8.9 7.2653Z" fill="white"/>
</svg>
