<svg width="10" height="11" viewBox="0 0 10 11" fill="none" xmlns="http://www.w3.org/2000/svg">
<path d="M5.09252 0.5L4.73049 0.505746L4.37076 0.539071L4.01563 0.597679L3.66395 0.681567L3.32031 0.790738L2.98471 0.92404L2.65946 1.08148L2.34686 1.26189L2.04689 1.4653L1.76416 1.68823L1.49753 1.93185L1.24928 2.19386L1.02057 2.47426L0.81255 2.76844L0.625215 3.07757L0.463165 3.40048L0.322951 3.73374L0.208022 4.07504L0.117228 4.42553L0.0528675 4.77948L0.0137915 5.13916L0 5.5L0.0137915 5.86084L0.0528675 6.22052L0.117228 6.57447L0.208022 6.92496L0.322951 7.26626L0.463165 7.59952L0.625215 7.92243L0.81255 8.23156L1.02057 8.52574L1.24928 8.80499L1.49753 9.06815L1.76416 9.31062L2.04689 9.5347L2.34686 9.73811L2.65946 9.91852L2.98471 10.076L3.32031 10.2104L3.66395 10.3184L4.01563 10.4023L4.37076 10.4621L4.73049 10.4943L5.09252 10.5L5.45225 10.4805L5.81083 10.4356L6.16596 10.3633L6.51304 10.2679L6.85324 10.1449L7.18308 10.0001L7.50373 9.83119L7.8083 9.63928L8.10022 9.42553L8.37605 9.19225L8.63349 8.93944L8.87139 8.66824L9.08976 8.38095L9.28744 8.07757L9.46328 7.7627L9.61384 7.43404L9.74256 7.09618L9.84485 6.75144L9.92185 6.39749L9.97472 6.04011L10 5.68157V5.31958L9.97472 4.95989L9.92185 4.60251L9.84485 4.24856L9.74256 3.90267L9.61384 3.56596L9.46328 3.2373L9.28744 2.92243L9.08976 2.61905L8.87139 2.33176L8.63349 2.06056L8.37605 1.80775L8.10022 1.57447L7.8083 1.36072L7.50373 1.16881L7.18308 0.999885L6.85324 0.853942L6.51304 0.732131L6.16596 0.635601L5.81083 0.564353L5.45225 0.519536L5.09252 0.5ZM4.91668 1.08837L5.25802 1.09412L5.59936 1.12859L5.9361 1.1872L6.2671 1.27339L6.5912 1.3837L6.9061 1.51931L7.20837 1.67789L7.49799 1.86061L7.77267 2.06516L8.03011 2.29039L8.27031 2.53516L8.48983 2.79602L8.68866 3.07527L8.86565 3.36831L9.01965 3.67398L9.14837 3.99115L9.25296 4.31751L9.33226 4.64962L9.38513 4.98747L9.41156 5.32878V5.67123L9.38513 6.01138L9.33226 6.34923L9.25296 6.68249L9.14837 7.00885L9.01965 7.32602L8.86565 7.63169L8.68866 7.92473L8.48983 8.20283L8.27031 8.46484L8.03011 8.70961L7.77267 8.93484L7.49799 9.13824L7.20837 9.32211L6.9061 9.48069L6.5912 9.6163L6.2671 9.72661L5.9361 9.81165L5.59936 9.87141L5.25802 9.90588L4.91668 9.91163L4.57534 9.89209L4.23629 9.84613L3.90185 9.77373L3.57315 9.6749L3.2548 9.55194L2.94449 9.40485L2.64912 9.23362L2.36639 9.03942L2.09976 8.82452L1.85151 8.59009L1.62165 8.33728L1.41248 8.06608L1.224 7.77994L1.0585 7.48L0.917136 7.16858L0.799908 6.84682L0.706815 6.51701L0.641306 6.18145L0.60223 5.8413L0.588438 5.5L0.60223 5.1587L0.641306 4.81855L0.706815 4.48299L0.799908 4.15318L0.917136 3.83027L1.0585 3.51885L1.224 3.21892L1.41248 2.93392L1.62165 2.66387L1.85151 2.40991L2.09976 2.17548L2.36639 1.96058L2.64912 1.76638L2.94449 1.59515L3.2548 1.44806L3.57315 1.3251L3.90185 1.22627L4.23629 1.15502L4.57534 1.10791L4.91668 1.08837ZM3.52718 2.85233V3.4407V5.20581V5.79419V8.00057H4.11562V5.79419H5.58671C5.61779 5.79364 5.64883 5.7921 5.67981 5.78959L6.56361 8.00057H7.19802L6.25101 5.6333C6.49332 5.51068 6.69696 5.32338 6.83936 5.09216C6.98176 4.86093 7.05737 4.59481 7.05781 4.32326C7.05781 3.93315 6.90282 3.55901 6.62694 3.28316C6.35105 3.0073 5.97687 2.85233 5.58671 2.85233H4.11562H3.52718ZM4.11562 3.4407H5.58671C5.82081 3.4407 6.04532 3.53369 6.21085 3.6992C6.37638 3.86471 6.46937 4.08919 6.46937 4.32326C6.46937 4.55733 6.37638 4.78181 6.21085 4.94732C6.04532 5.11283 5.82081 5.20581 5.58671 5.20581H4.11562V3.4407Z" fill="white"/>
</svg>
